<svg xmlns="http://www.w3.org/2000/svg" width="228" height="371" fill="none"><path fill="#8DC63F" fill-rule="evenodd" d="M57.54 104.716L15.639 72.019l44.323-3.512-12.11-39.6 37.541 17.075 27.975-43.596 23.857 42.87 33.787-17.924-3.875 38.026 40.447-2.785-49.651 50.136-100.393-7.993z" clip-rule="evenodd"/><path fill="#565656" fill-rule="evenodd" d="M58.444 102.394l98.574 7.847 44.421-44.853-34.137 2.35a2.35 2.35 0 01-1.88-.72 2.385 2.385 0 01-.659-1.902l3.423-33.583-29.842 15.83a2.384 2.384 0 01-3.204-.948L113.222 7.03 87.402 47.27c-.64 1-1.921 1.374-2.996.884L51.68 33.27l10.564 34.538a2.387 2.387 0 01-2.095 3.076l-38.205 3.028 36.499 28.482zm99.49 12.701c-.062 0-.126-.003-.189-.009l-100.393-7.991a2.396 2.396 0 01-1.279-.498L14.172 73.9a2.387 2.387 0 011.28-4.26l41.358-3.277-11.24-36.758a2.391 2.391 0 01.708-2.493 2.39 2.39 0 012.562-.379L84.5 42.953 111.36 1.098A2.415 2.415 0 01113.442 0c.84.027 1.602.492 2.011 1.225l22.719 40.825 31.722-16.827a2.391 2.391 0 012.452.129 2.388 2.388 0 011.04 2.222l-3.588 35.209 37.624-2.592a2.388 2.388 0 011.86 4.06l-49.652 50.137a2.39 2.39 0 01-1.696.707z" clip-rule="evenodd"/><path fill="#fff" fill-rule="evenodd" d="M168.224 72.467a2.387 2.387 0 01-.168-4.767l27.005-1.937a2.382 2.382 0 012.552 2.21 2.389 2.389 0 01-2.212 2.55l-27.004 1.938a2.804 2.804 0 01-.173.006zM140.739 51.153a2.385 2.385 0 01-1.116-4.498l24.584-12.957a2.386 2.386 0 012.226 4.221l-24.584 12.958a2.367 2.367 0 01-1.11.276zM28.23 78.159a2.386 2.386 0 01-.186-4.766l35.062-2.79L53.2 38.324a2.388 2.388 0 013.27-2.871l29.728 13.554 24.798-38.588a2.387 2.387 0 014.016 2.58L89.098 53.327a2.389 2.389 0 01-2.999.882L59.32 41.998l9.22 30.046a2.384 2.384 0 01-2.09 3.08l-38.028 3.028a2.522 2.522 0 01-.191.007z" clip-rule="evenodd"/><path fill="#F2CC38" fill-rule="evenodd" d="M212.307 230.904c0-1.696.122-3.27.122-4.967 0-75.808-46.624-137.327-104.147-137.327S4.135 150.129 4.135 225.937c0 1.697 0 3.271.12 4.967h-.12v50.983c0 47.472 38.872 86.344 86.344 86.344h35.725c47.473 0 86.345-38.872 86.345-86.344l-.242-50.983z" clip-rule="evenodd"/><path fill="#565656" fill-rule="evenodd" d="M6.52 233.29v48.597c0 46.295 37.664 83.958 83.959 83.958h35.725c46.296 0 83.958-37.663 83.958-83.958l-.242-50.984c0-.878.03-1.725.063-2.572.029-.787.059-1.575.059-2.393 0-74.408-45.65-134.942-101.761-134.942S6.521 151.53 6.521 225.938c0 1.637 0 3.185.115 4.797l.18 2.555h-.295zm119.684 137.328H90.479c-48.926 0-88.73-39.805-88.73-88.731l.015-53.369c-.016-.857-.016-1.707-.016-2.58 0-77.04 47.79-139.716 106.533-139.716 58.742 0 106.534 62.676 106.534 139.716 0 .878-.03 1.726-.063 2.572-.029.786-.059 1.575-.059 2.391l.243 50.974c0 48.938-39.806 88.743-88.732 88.743z" clip-rule="evenodd"/><path fill="#fff" fill-rule="evenodd" d="M126.083 363.474H90.359c-44.986 0-81.586-36.6-81.586-81.587v-43.839c0-.364.08-.708.226-1.017l-.107-7.061c0-.665-.029-1.296-.056-1.925a45.28 45.28 0 01-.063-2.107c0-73.1 44.584-132.57 99.387-132.57a2.387 2.387 0 110 4.772c-52.17 0-94.615 57.331-94.615 127.798 0 .63.03 1.261.058 1.891.033.701.063 1.403.063 2.106l.121 8.077c.005.379-.078.751-.242 1.084v42.791c0 42.355 34.458 76.815 76.814 76.815h35.724a2.386 2.386 0 110 4.772z" clip-rule="evenodd"/><path fill="#F0A63A" fill-rule="evenodd" d="M107.312 331.296c-.241-.363-.727-.483-.969-.242l-15.38 10.052-14.773-10.052a1.035 1.035 0 00-.847 0c-.364.242-.364.726-.123 1.09l13.444 15.743.242.242c1.21 1.09 3.147.969 4.238-.242l14.168-15.743c.122-.12.242-.485 0-.848zM109.613 115.13c-.242-.363-.726-.484-.969-.242l-15.38 10.051-14.774-10.051a1.035 1.035 0 00-.848 0c-.363.242-.363.727-.12 1.09l13.442 15.743.242.242c1.21 1.09 3.148.969 4.238-.242l14.169-15.743c.121-.242.242-.606 0-.848zM160.234 132.932c-.122-.242-.484-.363-.727-.121l-11.02 7.145-10.535-7.145c-.243-.121-.485-.121-.605 0-.244.242-.244.485 0 .727l9.565 11.141c0 .121.123.121.243.242.847.848 2.302.727 3.027-.121l10.052-11.262c0-.121.122-.363 0-.606zM52.09 291.696c-.242-.364-.605-.364-.968-.241l-14.29 9.446-13.806-9.326a1.043 1.043 0 00-.848 0c-.242.243-.363.726-.12.968l12.473 14.655c.12.12.12.241.242.241 1.211 1.09 2.906.97 3.996-.241l13.08-14.655a.638.638 0 00.241-.847zM161.567 331.659c-.242-.363-.606-.363-.97-.241l-14.29 9.446-13.804-9.326a1.044 1.044 0 00-.848 0c-.242.243-.363.727-.122.969l12.474 14.654c.121.12.121.241.241.241 1.211 1.09 2.908.97 3.998-.241l13.079-14.654a.64.64 0 00.242-.848zM198.986 193.362c-.242-.364-.606-.364-.969-.243l-14.29 9.446-13.806-9.325a1.034 1.034 0 00-.847 0c-.241.243-.364.727-.121.969l12.473 14.653c.122.122.122.243.242.243 1.211 1.09 2.908.968 3.997-.243l13.079-14.653a.636.636 0 00.242-.847zM52.696 215.523c-.242-.363-.605-.363-.968-.242l-14.29 9.446-13.806-9.446a1.035 1.035 0 00-.848 0c-.242.242-.363.726-.12.969l12.473 14.653c.12.121.12.241.242.241 1.21 1.091 2.906.97 3.996-.241l13.08-14.653c.363-.121.363-.484.241-.727zM62.504 320.396c-.12-.121-.363-.242-.483-.121l-7.63 4.966-7.388-4.966c-.12-.121-.363-.121-.483 0a.366.366 0 000 .485l6.66 7.75.12.121c.606.606 1.575.485 2.18-.121l7.024-7.75v-.364zM140.857 276.68c-.121-.122-.363-.242-.483-.122l-7.631 4.966-7.387-4.966c-.12-.12-.363-.12-.484 0-.121.122-.121.364 0 .485l6.66 7.751.122.121c.605.605 1.574.484 2.179-.121l7.024-7.751v-.363zM174.282 227.634c-.123-.123-.365-.243-.485-.123l-7.629 4.967-7.388-4.967c-.12-.12-.364-.12-.484 0-.122.123-.122.365 0 .486l6.661 7.75.12.122c.605.605 1.574.484 2.18-.122l7.025-7.75c.121 0 .121-.242 0-.363zM71.71 150.976c-.123-.121-.364-.242-.485-.121l-7.63 4.965-7.386-4.965c-.121-.121-.365-.121-.485 0a.368.368 0 000 .484l6.66 7.751.12.121c.606.605 1.576.484 2.182-.121l7.024-7.751v-.363zM182.274 155.457c-.121-.121-.363-.242-.484-.121l-7.63 4.965-7.387-4.965a.368.368 0 00-.484 0 .368.368 0 000 .484l6.66 7.751.121.121c.606.605 1.575.484 2.18-.121l7.024-7.751c.121 0 .121-.242 0-.363z" clip-rule="evenodd"/><path fill="#D2E6FC" fill-rule="evenodd" d="M85.03 222.305H66.017c-2.302 0-4.238-1.938-4.238-4.117 0-2.302 1.816-4.118 4.238-4.118H85.03c2.3 0 4.239 1.937 4.239 4.118 0 2.179-1.94 4.117-4.239 4.117z" clip-rule="evenodd"/><path fill="#565656" fill-rule="evenodd" d="M66.017 216.457c-1.073 0-1.851.729-1.851 1.731 0 .889.9 1.73 1.851 1.73H85.03c.952 0 1.852-.841 1.852-1.73 0-.891-.9-1.731-1.852-1.731H66.017zm19.013 8.235H66.017c-3.592 0-6.625-2.978-6.625-6.504 0-3.647 2.911-6.504 6.625-6.504H85.03c3.592 0 6.626 2.979 6.626 6.504 0 3.526-3.034 6.504-6.626 6.504z" clip-rule="evenodd"/><path fill="#fff" fill-rule="evenodd" d="M96.777 174.106c13.309 0 24.098 10.791 24.098 24.1 0 13.31-10.789 24.099-24.098 24.099-13.31 0-24.099-10.789-24.099-24.099 0-13.309 10.789-24.1 24.1-24.1z" clip-rule="evenodd"/><path fill="#565656" fill-rule="evenodd" d="M96.777 176.493c-11.973 0-21.713 9.74-21.713 21.713 0 11.972 9.74 21.712 21.713 21.712 11.972 0 21.712-9.74 21.712-21.712 0-11.973-9.74-21.713-21.712-21.713zm0 48.199c-14.605 0-26.486-11.883-26.486-26.486 0-14.604 11.881-26.485 26.486-26.485s26.485 11.881 26.485 26.485c0 14.603-11.88 26.486-26.485 26.486z" clip-rule="evenodd"/><path fill="#565656" fill-rule="evenodd" d="M110.461 198.69c0 1.453-1.574 2.545-1.939 3.756-.483 1.33.123 3.147-.605 4.238-.847 1.089-2.784 1.089-3.874 1.936-1.09.848-1.696 2.665-3.028 3.028-1.21.363-2.786-.725-4.238-.725-1.454 0-3.028 1.088-4.239.725-1.332-.484-1.937-2.301-3.027-3.028-1.09-.847-3.028-.847-3.876-1.936-.847-1.091-.242-2.908-.605-4.238-.363-1.211-1.939-2.422-1.939-3.756 0-1.332 1.576-2.543 1.939-3.754.363-1.332-.122-3.149.605-4.239.848-1.089 2.786-1.089 3.876-1.937 1.09-.848 1.695-2.664 3.027-3.028 1.211-.363 2.785.727 4.239.727 1.452 0 2.906-1.09 4.238-.727 1.332.485 1.938 2.301 3.028 3.028 1.09.848 3.027.848 3.874 1.937.849 1.09.243 2.907.605 4.239.365 1.211 1.939 2.301 1.939 3.754z" clip-rule="evenodd"/><path fill="#fff" fill-rule="evenodd" d="M87.936 184.158a5.571 5.571 0 11.002 11.142 5.571 5.571 0 01-.002-11.142zM95.93 196.995a3.149 3.149 0 110 6.297 3.149 3.149 0 010-6.297z" clip-rule="evenodd"/><path fill="#F2CC38" fill-rule="evenodd" d="M69.53 173.138l25.309-6.539 14.17 6.539-9.931 5.934-11.142 4.965H70.618l-1.088-10.899z" clip-rule="evenodd"/><path fill="#565656" fill-rule="evenodd" d="M73.61 186.589c-5.142 0-8.489-.543-8.604-.564a2.386 2.386 0 01.81-4.704c1.533.263 37.743 6.062 53.791-24.785a2.387 2.387 0 014.234 2.202c-12.672 24.358-37.207 27.851-50.232 27.851z" clip-rule="evenodd"/><path fill="#D2E6FC" fill-rule="evenodd" d="M198.986 222.305H176.34c-2.301 0-4.239-1.938-4.239-4.117 0-2.302 1.938-4.118 4.239-4.118h22.646c2.301 0 4.238 1.937 4.238 4.118 0 2.179-1.937 4.117-4.238 4.117z" clip-rule="evenodd"/><path fill="#565656" fill-rule="evenodd" d="M176.34 216.457c-1.022 0-1.851.777-1.851 1.731 0 .889.899 1.73 1.851 1.73h22.646c.952 0 1.852-.841 1.852-1.73 0-.891-.9-1.731-1.852-1.731H176.34zm22.646 8.235H176.34c-3.592 0-6.625-2.978-6.625-6.504 0-3.587 2.971-6.504 6.625-6.504h22.646c3.592 0 6.625 2.979 6.625 6.504 0 3.526-3.033 6.504-6.625 6.504z" clip-rule="evenodd"/><path fill="#fff" fill-rule="evenodd" d="M168.347 174.106c13.309 0 24.1 10.791 24.1 24.1 0 13.31-10.791 24.099-24.1 24.099-13.309 0-24.099-10.789-24.099-24.099 0-13.309 10.79-24.1 24.099-24.1z" clip-rule="evenodd"/><path fill="#565656" fill-rule="evenodd" d="M168.347 176.493c-11.973 0-21.713 9.74-21.713 21.713 0 11.972 9.74 21.712 21.713 21.712 11.974 0 21.714-9.74 21.714-21.712 0-11.973-9.74-21.713-21.714-21.713zm.001 48.199c-14.605 0-26.487-11.883-26.487-26.486 0-14.604 11.882-26.485 26.487-26.485 14.604 0 26.486 11.881 26.486 26.485 0 14.603-11.882 26.486-26.486 26.486z" clip-rule="evenodd"/><path fill="#565656" fill-rule="evenodd" d="M154.664 198.69c0 1.453 1.574 2.545 1.938 3.756.484 1.33-.121 3.147.605 4.238.848 1.089 2.784 1.089 3.875 1.936 1.09.848 1.696 2.665 3.028 3.028 1.211.363 2.785-.725 4.238-.725 1.454 0 3.028 1.088 4.239.725 1.331-.484 1.936-2.301 3.028-3.028 1.089-.847 3.027-.847 3.875-1.936.847-1.091.242-2.908.605-4.238.364-1.211 1.938-2.422 1.938-3.756 0-1.332-1.574-2.543-1.938-3.754-.484-1.332.121-3.149-.605-4.239-.848-1.089-2.786-1.089-3.875-1.937-1.092-.848-1.697-2.664-3.028-3.028-1.211-.363-2.785.727-4.239.727-1.453 0-3.027-1.09-4.238-.727-1.332.485-1.938 2.301-3.028 3.028-1.091.848-3.027.848-3.875 1.937-.849 1.09-.243 2.907-.605 4.239-.364 1.211-1.938 2.301-1.938 3.754z" clip-rule="evenodd"/><path fill="#fff" fill-rule="evenodd" d="M161.445 184.158a5.571 5.571 0 11.001 11.143 5.571 5.571 0 01-.001-11.143zM169.195 196.995a3.149 3.149 0 110 6.298 3.149 3.149 0 010-6.298z" clip-rule="evenodd"/><path fill="#F2CC38" fill-rule="evenodd" d="M195.595 173.138l-25.31-6.539-14.169 6.539 9.931 5.934 11.141 4.965h17.317l1.09-10.899z" clip-rule="evenodd"/><path fill="#565656" fill-rule="evenodd" d="M191.516 186.589c-13.023 0-37.558-3.491-50.231-27.851a2.387 2.387 0 114.233-2.202c16.084 30.913 53.414 24.851 53.789 24.785a2.382 2.382 0 012.757 1.947 2.384 2.384 0 01-1.945 2.757c-.115.021-3.464.564-8.603.564zM147.276 252.666a2.387 2.387 0 01-2.387-2.387c0-6.63-5.394-12.024-12.023-12.024-6.632 0-12.026 5.394-12.026 12.024a2.387 2.387 0 01-4.773 0c0-9.261 7.536-16.798 16.799-16.798 9.26 0 16.797 7.537 16.797 16.798a2.388 2.388 0 01-2.387 2.387z" clip-rule="evenodd"/><path fill="#F2CC38" fill-rule="evenodd" d="M34.773 292.301s-.122 0 0 0c-13.2-.121-20.71-14.773-25.189-25.915-4.239-10.537-6.782-20.83-6.903-21.192-1.333-5.088 1.938-10.416 7.024-11.627 5.086-1.211 10.414 1.939 11.625 7.025 3.15 13.321 9.205 27.489 13.2 31.606 1.937-2.301 6.42-9.567 11.625-30.275 1.334-5.087 6.541-8.234 11.627-7.023 5.087 1.331 8.235 6.538 7.024 11.625-5.45 22.646-13.563 45.776-30.033 45.776z" clip-rule="evenodd"/><path fill="#565656" fill-rule="evenodd" d="M4.99 244.589l.134.496c2.46 9.274 4.987 16.219 6.674 20.411 4.192 10.428 11.136 24.302 22.986 24.419 15.182-.012 22.78-23.492 27.702-43.948.91-3.823-1.47-7.754-5.308-8.759-3.772-.892-7.708 1.484-8.714 5.32-5.248 20.87-9.839 28.512-12.108 31.207a2.393 2.393 0 01-1.742.85 2.452 2.452 0 01-1.797-.724c-4.428-4.565-10.623-19.242-13.81-32.721-.895-3.759-4.89-6.173-8.75-5.252-1.828.436-3.451 1.642-4.451 3.311-1 1.666-1.291 3.581-.817 5.39zm29.783 50.099h-.054l-.085-.002c-14.642-.218-22.57-15.738-27.264-27.41-1.736-4.316-4.336-11.458-6.859-20.967l-.114-.424c-.827-3.147-.35-6.365 1.316-9.142 1.657-2.763 4.369-4.766 7.44-5.498 3.075-.733 6.291-.228 9.045 1.427 2.783 1.67 4.72 4.287 5.453 7.367 2.704 11.437 7.352 22.682 10.769 28.068 2.08-3.616 5.532-11.295 9.421-26.766 1.664-6.348 8.161-10.265 14.494-8.763 6.378 1.67 10.3 8.169 8.793 14.5-10.156 42.199-22.626 47.61-32.355 47.61z" clip-rule="evenodd"/><path fill="#fff" fill-rule="evenodd" d="M34.893 282.699c-.656 0-1.284-.27-1.735-.748l-4.117-4.361c-5.518-6.041-11.93-22.518-14.974-35.016-.312-.921-1.086-1.534-1.941-1.534-.157 0-.27-.006-.373.005-.088.029-.137.047-.226.066a1.621 1.621 0 00-1.07.764 2.05 2.05 0 00-.235 1.493 2.383 2.383 0 01-1.843 2.826 2.384 2.384 0 01-2.826-1.841 6.81 6.81 0 01.824-4.955 6.364 6.364 0 014.04-2.93c.664-.201 1.172-.201 1.709-.201 2.973 0 5.591 1.987 6.516 4.944.016.05.03.099.042.149 3.246 13.377 9.462 28.173 13.855 32.983l2.252 2.386 2.152-2.555c2.83-3.282 7.229-11.39 12.226-31.495.742-2.967 3.376-4.959 6.553-4.959.47 0 1.111 0 1.841.242a2.387 2.387 0 011.516 3.015 2.392 2.392 0 01-3.016 1.517c-.089-.012-.213-.002-.34 0-.995 0-1.714.501-1.925 1.34-4.192 16.87-8.64 28.12-13.223 33.435l-3.857 4.581a2.381 2.381 0 01-1.757.848l-.068.001z" clip-rule="evenodd"/><path fill="#F2CC38" fill-rule="evenodd" d="M223.933 268.566c1.332-4.36 1.211-10.536-3.875-13.443-5.45-3.148-9.93 3.754-9.93 3.754-2.422 8.114-4.36 11.747-5.33 13.322-3.269-4.118-8.113-18.287-10.777-31.608-1.091-5.086-5.329-8.356-9.568-7.024-4.239 1.332-6.78 6.54-5.812 11.626.12.363 2.059 10.657 5.57 21.193 3.633 11.141 9.81 25.794 20.587 25.915 8.842 0 14.654-9.809 18.893-23.009 0-.121.12-.363.12-.484.122 0 .122-.121.122-.242z" clip-rule="evenodd"/><mask style="mask-type:alpha" id="a" width="52" height="65" x="176" y="230" maskUnits="userSpaceOnUse"><path fill="#fff" fill-rule="evenodd" d="M176.046 230.884h50.983v63.803h-50.983v-63.803z" clip-rule="evenodd"/></mask><g mask="url(#a)"><path fill="#565656" fill-rule="evenodd" d="M180.984 244.747c.045.189.106.463.179.811.592 2.798 2.392 11.31 5.312 20.073 5.304 16.267 11.304 24.206 18.35 24.283 6.518 0 11.938-6.93 16.541-21.186.032-.152.071-.279.103-.377.046-.236.126-.459.236-.665.47-1.638 1.863-7.809-2.831-10.489-3.001-1.733-5.836 1.728-6.571 2.732-1.819 6.029-3.658 10.578-5.472 13.521a2.389 2.389 0 01-3.901.233c-3.541-4.461-8.482-18.791-11.249-32.623-.45-2.096-1.644-3.903-3.185-4.803-.743-.434-1.927-.855-3.327-.413-3.058.962-4.935 4.955-4.184 8.903h-.001zm23.814 49.94c-12.479-.139-19.02-15.795-22.855-27.56-3.002-9.008-4.843-17.718-5.449-20.581-.076-.355-.125-.6-.152-.714a2.22 2.22 0 01-.045-.192c-1.21-6.354 2.058-12.658 7.441-14.349 2.396-.754 4.937-.452 7.16.842 2.723 1.588 4.712 4.487 5.456 7.958 2.21 11.05 5.624 21.482 8.3 27.124.917-2.115 1.995-5.028 3.186-9.019.066-.22.161-.427.285-.618 1.977-3.046 7.261-7.914 13.127-4.519 6.133 3.503 6.555 10.73 5.034 15.964a2.65 2.65 0 01-.289.884 3.072 3.072 0 01-.035.114c-5.329 16.597-12.252 24.666-21.164 24.666z" clip-rule="evenodd"/></g><path fill="#F2CC38" fill-rule="evenodd" d="M223.691 269.292c0-.121.121-.363.121-.483 0 .12 0 .362-.121.483z" clip-rule="evenodd"/><path fill="#565656" fill-rule="evenodd" d="M223.691 271.678a2.389 2.389 0 01-2.387-2.387c0-.408.099-.739.164-.939a2.386 2.386 0 014.729.441v.018c-.001.896-.276 1.625-.818 2.169a2.388 2.388 0 01-1.688.698z" clip-rule="evenodd"/><path fill="#fff" fill-rule="evenodd" d="M204.798 282.7a2.391 2.391 0 01-1.91-.956l-3.268-4.361c-4.623-6.074-9.887-22.572-12.302-35.004-.164-.879-.713-1.339-1.048-1.339-.033 0-.063 0-.094-.002a2.509 2.509 0 01-.14.044c-.424.111-1.074 1.091-.822 2.286a2.385 2.385 0 01-1.842 2.827 2.383 2.383 0 01-2.827-1.842c-.728-3.447 1.087-6.905 4.062-7.826.647-.26 1.226-.26 1.663-.26 2.757 0 5.17 2.193 5.736 5.217 2.545 13.102 7.777 28.231 11.423 33.023l1.281 1.709 1.269-1.853c1.188-1.684 3.044-5.178 5.257-12.428a2.385 2.385 0 114.564 1.393c-1.924 6.306-3.909 10.936-5.903 13.76l-3.13 4.573a2.384 2.384 0 01-1.918 1.038l-.051.001z" clip-rule="evenodd"/></svg>